<svg xmlns="http://www.w3.org/2000/svg" version="1.1" xmlns:xlink="http://www.w3.org/1999/xlink" xmlns:svgjs="http://svgjs.dev/svgjs" width="1000" height="1000" viewBox="0 0 1000 1000"><rect width="1000" height="1000" fill="#000000"></rect><g transform="matrix(0.7,0,0,0.7,150.0000000000001,106.25)"><svg viewBox="0 0 320 360" data-background-color="#ffffff" preserveAspectRatio="xMidYMid meet" height="1125" width="1000" xmlns="http://www.w3.org/2000/svg" xmlns:xlink="http://www.w3.org/1999/xlink"><g id="tight-bounds" transform="matrix(1,0,0,1,0,0)"><svg viewBox="0 0 320 360" height="360" width="320"><g><svg></svg></g><g><svg viewBox="0 0 320 360" height="360" width="320"><g><path xmlns="http://www.w3.org/2000/svg" d="M20.961 227.22l3.726 4.658-1.863-6.056c-0.466-2.795-3.726 0.466-1.863 1.398M25.153 224.425c1.397 2.329 2.795 4.658 2.795 6.987 0 3.261 2.795 4.658 5.123 5.589-3.261-3.726-5.124-13.974-7.918-12.576M204.017 26.929c7.918 0 15.371-0.932 23.756 0.931 20.495 5.124 37.729 15.371 49.374 29.811l32.606 52.169c1.397 13.042 4.192 27.482 3.726 43.319 3.261 0 2.795-4.658 6.521-5.59-3.726 9.316-5.59 20.961-6.521 34.469-2.329-7.453 0-18.632 0.466-24.687-3.261 5.124-5.124 1.397-5.124-0.932 0.466-3.726-1.397-3.261-2.795-4.658-5.124-4.658-8.384-9.782-12.11-17.7 2.329-6.055 2.795-14.905-4.658-19.563-2.329-1.397-5.124-3.726-6.521-7.453-1.863-5.124-5.124-11.179-4.193-19.097 0.466-2.329-6.987 5.124-11.179 1.863-18.166-12.576-36.332-27.016-58.224-39.127-11.645 0-20.029-4.192-24.221-9.316-3.726-4.658-0.932-10.713 4.658-11.179 3.261 0 6.987-0.932 9.782 0.932 0.466-1.863 2.329-4.192 4.657-4.192M157.904 16.215l0.932 0.466c4.658 0.932 6.987 7.453 12.11 5.124 0 3.261 0.466 6.521-0.466 8.85-1.397 3.726-5.59 3.726-8.85 3.726-31.208-1.863-49.374 11.179-68.471 22.358-5.124 3.261-10.713 5.59-14.906 9.782-20.029 18.632-41.921 35.866-47.045 70.335l-4.192 38.195c-0.466 4.192-5.124 8.384-4.192 13.508l3.26 22.824c-3.261-3.261-5.124 0.932-4.192 2.795 0.466 1.397 2.329 6.055 5.124 1.863 3.726 6.987 7.453 20.495 12.576 26.55 15.837 18.632 36.332 35.4 53.101 52.169 4.192-0.932 7.453-0.932 8.384-3.727 1.397 2.795-1.397 5.59-3.726 6.056 7.453 4.658 15.837 8.85 27.016 9.781 14.44 0.932 27.948 3.261 40.524 6.522 6.521-1.863 13.042-2.795 20.029-3.261 2.329 0 3.726-3.726 6.521-4.658l0.466-4.658c2.795 4.192 2.329-1.397 0.466-4.192 3.261 2.795 4.192 5.124 5.589 6.987 0-1.397 3.726-6.521 3.727-0.466l0.931-6.055c1.397-0.932 1.863 5.124 3.261 0.931 1.397-4.192 4.192-0.932 6.987-2.329-0.932 1.863-0.466 5.59 2.794 3.261l3.727-3.261c2.329 5.59 6.055 3.261 7.918 2.329 20.495-13.042 40.99-28.413 60.553-43.784l-0.466 6.055 2.329-7.453c2.329 2.329 4.192 0.466 5.124-0.931 2.795-4.658 6.521-9.316 12.577-13.508-7.453 20.029-16.303 35.866-27.482 48.908l-4.658 5.59c0 3.261-0.932 7.453-4.658 7.918-1.863 0.466-5.59-0.932-8.384 1.863-1.397 1.863 3.261 5.59-0.466 2.795-3.261-2.329-6.521 0-10.248 0.932-2.795 0.932 1.863 3.726 2.795 5.589 0.932 1.863 1.863 3.726 1.398 6.056l-5.124-5.59c-6.055 3.261-9.782 9.316-14.906 13.974-2.329 1.863-1.397 5.124-1.397 7.918-3.261 0-6.987-0.932-8.85 0.932-1.397 1.863-0.932 4.658-0.932 7.453-4.658-0.466-5.124-7.453-9.315-6.056-4.192 0.932-8.85 1.397-12.577 3.727 2.795 5.59-4.658 2.329-3.726 3.26-6.987-4.192-13.042-7.453-20.495-4.658-15.837-5.124-35.4-2.795-49.84-0.931 0-2.329 0.466-4.658-0.466-5.124-0.932 2.329-3.726 1.397-3.26 1.397-8.85-6.055-17.7-9.782-27.016-14.905-8.384 0.932-16.303-3.261-18.632-5.59-6.521-6.055-13.974-2.795-20.029-4.192-13.042-3.261-17.7-16.769-19.098-26.084-0.932-4.658-4.658-6.521-6.055-6.056-6.055-19.563-15.371-37.263-22.824-55.429-1.863-4.658-1.397-9.316-1.397-14.44 2.329 0.932 4.658 0.466 4.192-2.794-2.329-15.371-7.918-27.016-13.974-38.195 3.261-15.837 3.726-34.469 11.179-48.443 6.521-12.576 18.632-19.098 27.016-29.811 2.795-3.726 2.795-8.85 5.59-12.11 9.316-9.316 18.632-19.098 28.879-27.482 4.658-3.726 10.247 0 17.234-1.397 2.329-8.384 11.645-15.837 20.495-13.508 3.726 0.932 11.179-8.85 13.508-9.782 3.726-1.397 1.863 3.726 1.863 6.987 8.85-6.987 20.961-10.713 32.14-14.906" fill="#ffffff" fill-rule="nonzero" stroke="none" stroke-width="1" stroke-linecap="butt" stroke-linejoin="miter" stroke-miterlimit="10" stroke-dasharray="" stroke-dashoffset="0" font-family="none" font-weight="none" font-size="none" text-anchor="none" style="mix-blend-mode: normal" data-fill-palette-color="tertiary"></path></g><g transform="matrix(1,0,0,1,64,166.60763358778627)"><svg viewBox="0 0 192 26.784732824427483" height="26.784732824427483" width="192"><g><svg viewBox="0 0 192 26.784732824427483" height="26.784732824427483" width="192"><g><svg viewBox="0 0 192 26.784732824427483" height="26.784732824427483" width="192"><g><svg viewBox="0 0 192 26.784732824427483" height="26.784732824427483" width="192"><g id="textblocktransform"><svg viewBox="0 0 192 26.784732824427483" height="26.784732824427483" width="192" id="textblock"><g><svg viewBox="0 0 192 26.784732824427483" height="26.784732824427483" width="192"><g transform="matrix(1,0,0,1,0,0)"><svg width="192" viewBox="1.100000023841858 -36.20000076293945 261.9700012207031 36.54999923706055" height="26.784732824427483" data-palette-color="#124948"><path d="M23.9-33.7L23.9-29.4 15.05-29.4 15.05 0 9.9 0 9.9-29.4 1.1-29.4 1.1-33.7 23.9-33.7ZM36.65-3.65L36.65-3.65Q39.05-3.65 40.42-4.98 41.8-6.3 41.8-8.45L41.8-8.45 41.8-11.3 38-11.3Q35.2-11.3 33.77-10.2 32.35-9.1 32.35-7.4L32.35-7.4Q32.35-5.65 33.45-4.65 34.55-3.65 36.65-3.65ZM41.95 0L41.95-3Q40 0.2 35.1 0.2L35.1 0.2Q31.5 0.2 29.32-1.88 27.15-3.95 27.15-7.15L27.15-7.15Q27.15-10.8 29.9-12.83 32.65-14.85 37.6-14.85L37.6-14.85 41.8-14.85 41.8-16.3Q41.8-18.9 40.55-20.23 39.3-21.55 36.4-21.55L36.4-21.55Q32.35-21.55 29.05-19.3L29.05-19.3 29.05-24.05Q32-25.75 36.85-25.75L36.85-25.75Q46.8-25.75 46.8-16.1L46.8-16.1 46.8 0 41.95 0ZM58.45-3.85L58.45 0 53.5 0 53.5-35.35 58.45-35.35 58.45-21.5Q61.15-25.7 66.1-25.7L66.1-25.7Q70.9-25.7 73.95-22.1 77-18.5 77-12.55L77-12.55Q77-7.2 74.1-3.43 71.2 0.35 66.15 0.35 61.1 0.35 58.45-3.85L58.45-3.85ZM58.45-12.85L58.45-12.85Q58.45-8.35 60.45-6.15 62.45-3.95 65.35-3.95L65.35-3.95Q68.15-3.95 70.05-6.33 71.95-8.7 71.95-12.45L71.95-12.45Q71.95-16.75 70.05-19.07 68.15-21.4 65.2-21.4L65.2-21.4Q62.6-21.4 60.52-19.3 58.45-17.2 58.45-12.85ZM87.64-35.35L87.64 0 82.69 0 82.69-35.35 87.64-35.35ZM113.64-5.75L113.64-1.35Q110.84 0.25 106.24 0.25L106.24 0.25Q100.34 0.25 96.84-3.3 93.34-6.85 93.34-12.6L93.34-12.6Q93.34-18.7 96.54-22.18 99.74-25.65 104.69-25.65L104.69-25.65Q109.54-25.65 112.39-22.63 115.24-19.6 115.24-13.9L115.24-13.9Q115.24-12.35 114.94-10.65L114.94-10.65 98.29-10.65Q98.79-7.35 101.09-5.6 103.39-3.85 106.89-3.85L106.89-3.85Q110.94-3.85 113.64-5.75L113.64-5.75ZM104.79-21.6L104.79-21.6Q102.29-21.6 100.49-19.78 98.69-17.95 98.24-14.5L98.24-14.5 110.49-14.5 110.49-15.4Q110.39-18.25 108.94-19.93 107.49-21.6 104.79-21.6ZM150.89-18.35L150.89-14.05 138.64-14.05 138.64 0 133.49 0 133.49-33.7 152.59-33.7 152.59-29.4 138.64-29.4 138.64-18.35 150.89-18.35ZM162.88-13.5L162.88 0 157.98 0 157.98-25.35 162.88-25.35 162.88-20.9Q164.73-25.6 169.53-25.6L169.53-25.6Q170.23-25.6 171.08-25.45L171.08-25.45 171.08-20.65Q170.03-21.1 168.73-21.1L168.73-21.1Q166.18-21.1 164.53-18.85 162.88-16.6 162.88-13.5L162.88-13.5ZM180.08-25.35L180.08 0 175.13 0 175.13-25.35 180.08-25.35ZM180.68-33.1L180.68-33.1Q180.68-31.85 179.78-30.95 178.88-30.05 177.58-30.05 176.28-30.05 175.41-30.93 174.53-31.8 174.53-33.1 174.53-34.4 175.41-35.3 176.28-36.2 177.58-36.2 178.88-36.2 179.78-35.3 180.68-34.4 180.68-33.1ZM206.08-5.75L206.08-1.35Q203.28 0.25 198.68 0.25L198.68 0.25Q192.78 0.25 189.28-3.3 185.78-6.85 185.78-12.6L185.78-12.6Q185.78-18.7 188.98-22.18 192.18-25.65 197.13-25.65L197.13-25.65Q201.98-25.65 204.83-22.63 207.68-19.6 207.68-13.9L207.68-13.9Q207.68-12.35 207.38-10.65L207.38-10.65 190.73-10.65Q191.23-7.35 193.53-5.6 195.83-3.85 199.33-3.85L199.33-3.85Q203.38-3.85 206.08-5.75L206.08-5.75ZM197.23-21.6L197.23-21.6Q194.73-21.6 192.93-19.78 191.13-17.95 190.68-14.5L190.68-14.5 202.93-14.5 202.93-15.4Q202.83-18.25 201.38-19.93 199.93-21.6 197.23-21.6ZM234.38-17.15L234.38 0 229.48 0 229.48-16Q229.48-18.65 228.15-20.05 226.83-21.45 224.63-21.45L224.63-21.45Q222.03-21.45 220.18-19.43 218.33-17.4 218.33-13.75L218.33-13.75 218.33 0 213.43 0 213.43-25.35 218.33-25.35 218.33-21Q220.58-25.7 226.23-25.7L226.23-25.7Q229.98-25.7 232.18-23.4 234.38-21.1 234.38-17.15L234.38-17.15ZM244.62-12.45L244.62-12.45Q244.62-8.65 246.5-6.3 248.37-3.95 251.22-3.95L251.22-3.95Q254.12-3.95 256.12-6.15 258.12-8.35 258.12-12.85L258.12-12.85Q258.12-17.2 256.05-19.3 253.97-21.4 251.37-21.4L251.37-21.4Q248.42-21.4 246.52-19.07 244.62-16.75 244.62-12.45ZM263.07-35.35L263.07 0 258.12 0 258.12-3.85Q255.47 0.35 250.37 0.35L250.37 0.35Q245.37 0.35 242.47-3.43 239.57-7.2 239.57-12.55L239.57-12.55Q239.57-18.5 242.62-22.1 245.67-25.7 250.47-25.7L250.47-25.7Q255.42-25.7 258.12-21.5L258.12-21.5 258.12-35.35 263.07-35.35Z" opacity="1" transform="matrix(1,0,0,1,0,0)" fill="#ffffff" class="wordmark-text-0" data-fill-palette-color="primary" id="text-0"></path></svg></g></svg></g></svg></g></svg></g><g></g></svg></g></svg></g></svg></g></svg></g><defs></defs></svg><rect width="320" height="360" fill="none" stroke="none" visibility="hidden"></rect></g></svg></g></svg>